# xmcd
#
# Track frame offsets: 
#        150
#        13798
#        26757
#        40021
#        55391
#        68853
#        81317
#        95651
#        110108
#        122095
#        133986
#        147294
#        159851
#        173911
#
# Disc length: 2507 seconds
#
# Revision: 0
# Processed by: cddbd v1.5.2PL0 Copyright (c) Steve Scherf et al.
# Submitted via: ExactAudioCopyFreeDBPlugin 1.0
#
DISCID=c809c90e
DTITLE=คำรณ สัมบุญณานนท์ - คนนอกสังคม
DYEAR=2006
DGENRE=Country
TTITLE0=คนนอกสังคม
TTITLE1=ตามน้องกลับนา
TTITLE2=หนุ่มสุพรรณฝันเพ้อ
TTITLE3=สาบานหน้าพระ
TTITLE4=บ้านยายหอม
TTITLE5=คนแก่โลก
TTITLE6=ลูกเขยนะลูกเขย
TTITLE7=คำรณ สัมบุญณานนท์ ร้องคู่ ศรีสอางค์ ตรีเนตร - บ้านนาลาบวช
TTITLE8=รวมท่า รวมบาง
TTITLE9=เว้าสาว
TTITLE10=หมอลำร็อค
TTITLE11=โกมินทร์ นิลวงศ์ - ขุนศึกกำสรวล
TTITLE12=โกมินทร์ นิลวงศ์ - พันท้ายนรสิงห์
TTITLE13=โกมินทร์ นิลวงศ์ - ฉางกาย
EXTD=
EXTT0=
EXTT1=
EXTT2=
EXTT3=
EXTT4=
EXTT5=
EXTT6=
EXTT7=
EXTT8=
EXTT9=
EXTT10=
EXTT11=
EXTT12=
EXTT13=
PLAYORDER=
